<?xml version="1.0" encoding="iso-8859-1"?>
<!-- Generator: Adobe Illustrator 19.0.0, SVG Export Plug-In . SVG Version: 6.00 Build 0)  -->
<svg version="1.1" id="Layer_1" xmlns="http://www.w3.org/2000/svg" xmlns:xlink="http://www.w3.org/1999/xlink" x="0px" y="0px"
	 viewBox="0 0 512 512" style="enable-background:new 0 0 512 512;" xml:space="preserve">
<path style="fill:#E5CDC1;" d="M55.419,199.755c-5.005,17.895-7.68,36.757-7.68,56.244s2.675,38.349,7.68,56.244
	c-26.173-5.349-45.864-28.479-45.864-56.244S29.245,205.104,55.419,199.755z"/>
<g>
	<path style="fill:#F9E0D2;" d="M456.564,199.755c26.173,5.324,45.889,28.479,45.889,56.244s-19.716,50.92-45.889,56.244
		c5.005-17.895,7.68-36.757,7.68-56.244S461.569,217.649,456.564,199.755z"/>
	<path style="fill:#F9E0D2;" d="M255.991,47.746c95.536,0,176.03,64.319,200.573,152.009c5.005,17.895,7.68,36.757,7.68,56.244
		s-2.675,38.349-7.68,56.244c-24.543,87.703-105.037,152.009-200.573,152.009c-95.523,0-176.03-64.306-200.573-152.009
		c-5.005-17.895-7.68-36.757-7.68-56.244s2.675-38.349,7.68-56.244C79.962,112.065,160.468,47.746,255.991,47.746z"/>
</g>
<path style="fill:#E5CDC1;" d="M162.399,312.243c-5.005-17.895-7.68-36.757-7.68-56.244s2.675-38.349,7.68-56.244
	c19.792-70.714,75.98-126.22,147.085-145.065c-17.071-4.524-34.998-6.944-53.493-6.944c-95.523,0-176.03,64.319-200.573,152.009
	c-5.005,17.895-7.68,36.757-7.68,56.244s2.675,38.349,7.68,56.244c24.543,87.703,105.05,152.009,200.573,152.009
	c18.494,0,36.422-2.42,53.493-6.943C238.379,438.467,182.19,382.966,162.399,312.243z"/>
<g>
	<path style="fill:#FFFFFF;" d="M432.403,265.551c-5.277,0-9.552-4.277-9.552-9.552c0-15.336-2.068-30.505-6.149-45.088
		c-7.162-25.589-20.707-49.518-39.172-69.202c-3.609-3.848-3.417-9.894,0.432-13.502c3.848-3.609,9.895-3.416,13.502,0.43
		c20.562,21.918,35.649,48.587,43.637,77.125c4.548,16.259,6.856,33.162,6.856,50.236
		C441.955,261.274,437.679,265.551,432.403,265.551z"/>
	<circle style="fill:#FFFFFF;" cx="363.471" cy="116.105" r="9.552"/>
</g>
<g>
	<path style="fill:#333333;" d="M512,255.999c0-29.732-19.805-55.846-47.857-64.185c-27.46-88.867-110.382-153.619-208.148-153.619
		c-97.767,0-180.69,64.752-208.148,153.62C19.8,200.162,0,226.278,0,255.999c0,29.719,19.8,55.835,47.845,64.182
		c27.458,88.871,110.382,153.624,208.149,153.624s180.69-64.753,208.149-153.622C492.196,311.844,512,285.729,512,255.999z
		 M19.105,255.999c0-16.999,9.059-32.347,22.946-40.856c-2.523,13.239-3.86,26.894-3.86,40.857c0,13.962,1.336,27.616,3.859,40.854
		C28.164,288.344,19.105,272.997,19.105,255.999z M255.995,454.7c-109.563,0-198.7-89.137-198.7-198.7
		c0-75.771,42.638-141.762,105.173-175.268c9.5,20.215,39.383,70.795,110.219,99.13c1.163,0.466,2.363,0.686,3.545,0.686
		c3.79,0,7.378-2.272,8.872-6.008c1.959-4.898-0.424-10.457-5.323-12.417c-64.362-25.745-91.763-72.396-100.002-89.616
		c21.698-9.047,45.329-14.35,70.086-15.104c6.62,13.427,25.628,44.949,64.903,62.802c1.283,0.583,2.625,0.858,3.947,0.858
		c3.631,0,7.102-2.081,8.703-5.601c2.183-4.803,0.059-10.465-4.744-12.649c-26.462-12.028-42.342-31.698-50.571-44.856
		c102.058,8.228,182.59,93.904,182.59,198.044C454.695,365.563,365.56,454.7,255.995,454.7z M469.938,296.862
		c2.524-13.241,3.86-26.898,3.86-40.862c0-13.965-1.337-27.624-3.862-40.866c13.893,8.504,22.957,23.855,22.957,40.865
		C492.895,273.007,483.832,288.358,469.938,296.862z"/>
	<path style="fill:#333333;" d="M206.071,295.265c5.277,0,9.552-4.277,9.552-9.552c0-22.839-18.581-41.419-41.42-41.419
		s-41.419,18.58-41.419,41.419c0,5.275,4.276,9.552,9.552,9.552c5.277,0,9.552-4.277,9.552-9.552
		c0-12.305,10.01-22.314,22.314-22.314c12.305,0,22.315,10.01,22.315,22.314C196.519,290.988,200.794,295.265,206.071,295.265z"/>
	<path style="fill:#333333;" d="M337.787,244.294c-22.839,0-41.42,18.58-41.42,41.419c0,5.275,4.276,9.552,9.552,9.552
		c5.277,0,9.552-4.277,9.552-9.552c0-12.305,10.009-22.314,22.315-22.314c12.306,0,22.315,10.01,22.315,22.314
		c0,5.275,4.276,9.552,9.552,9.552c5.277,0,9.552-4.277,9.552-9.552C379.205,262.874,360.626,244.294,337.787,244.294z"/>
	<path style="fill:#333333;" d="M300.951,350.003c-24.279,24.279-63.784,24.279-88.063,0c-3.732-3.73-9.779-3.73-13.509,0
		c-3.73,3.73-3.73,9.779,0,13.508c15.38,15.38,35.816,23.851,57.542,23.851s42.161-8.47,57.542-23.851
		c3.73-3.73,3.73-9.779,0-13.508C310.73,346.273,304.682,346.273,300.951,350.003z"/>
	<path style="fill:#333333;" d="M243.248,318.634h25.493c5.277,0,9.552-4.277,9.552-9.552c0-5.275-4.276-9.552-9.552-9.552h-25.493
		c-5.277,0-9.552,4.277-9.552,9.552C233.696,314.357,237.973,318.634,243.248,318.634z"/>
</g>
<g>
</g>
<g>
</g>
<g>
</g>
<g>
</g>
<g>
</g>
<g>
</g>
<g>
</g>
<g>
</g>
<g>
</g>
<g>
</g>
<g>
</g>
<g>
</g>
<g>
</g>
<g>
</g>
<g>
</g>
</svg>
